<mxfile host="app.diagrams.net" modified="2020-06-10T11:36:39.875Z" agent="5.0 (Windows NT 10.0; Win64; x64) AppleWebKit/537.36 (KHTML, like Gecko) Chrome/83.0.4103.97 Safari/537.36" etag="nE-oHl7ki776Rl298YEx" version="13.2.1" type="github" pages="5">
  <diagram id="9nE0eEHuFTn9pYzQDSVl" name="Page-1">
    <mxGraphModel dx="1102" dy="582" grid="1" gridSize="10" guides="1" tooltips="1" connect="1" arrows="1" fold="1" page="1" pageScale="1" pageWidth="827" pageHeight="1169" math="0" shadow="0">
      <root>
        <mxCell id="0" />
        <mxCell id="1" parent="0" />
        <mxCell id="Zs8oa-NqQ4L7-z65SoMr-1" value="" style="whiteSpace=wrap;html=1;aspect=fixed;" parent="1" vertex="1">
          <mxGeometry x="110" y="290" width="640" height="640" as="geometry" />
        </mxCell>
        <mxCell id="Zs8oa-NqQ4L7-z65SoMr-2" value="player" style="shape=umlActor;verticalLabelPosition=bottom;labelBackgroundColor=#ffffff;verticalAlign=top;html=1;outlineConnect=0;" parent="1" vertex="1">
          <mxGeometry x="50" y="555" width="30" height="60" as="geometry" />
        </mxCell>
        <mxCell id="Zs8oa-NqQ4L7-z65SoMr-5" value="choose game" style="rounded=1;whiteSpace=wrap;html=1;" parent="1" vertex="1">
          <mxGeometry x="150" y="380" width="120" height="60" as="geometry" />
        </mxCell>
        <mxCell id="Zs8oa-NqQ4L7-z65SoMr-6" value="create player" style="rounded=1;whiteSpace=wrap;html=1;" parent="1" vertex="1">
          <mxGeometry x="150" y="310" width="120" height="60" as="geometry" />
        </mxCell>
        <mxCell id="Zs8oa-NqQ4L7-z65SoMr-9" value="Play Tic Tac Toe" style="rounded=1;whiteSpace=wrap;html=1;" parent="1" vertex="1">
          <mxGeometry x="150" y="450" width="120" height="60" as="geometry" />
        </mxCell>
        <mxCell id="Zs8oa-NqQ4L7-z65SoMr-11" value="set token" style="rounded=1;whiteSpace=wrap;html=1;" parent="1" vertex="1">
          <mxGeometry x="150" y="525" width="120" height="60" as="geometry" />
        </mxCell>
        <mxCell id="Zs8oa-NqQ4L7-z65SoMr-12" value="reset game options" style="rounded=1;whiteSpace=wrap;html=1;" parent="1" vertex="1">
          <mxGeometry x="150" y="600" width="120" height="60" as="geometry" />
        </mxCell>
        <mxCell id="Zs8oa-NqQ4L7-z65SoMr-13" value="Play Triple Digits" style="rounded=1;whiteSpace=wrap;html=1;" parent="1" vertex="1">
          <mxGeometry x="150" y="670" width="120" height="60" as="geometry" />
        </mxCell>
        <mxCell id="Zs8oa-NqQ4L7-z65SoMr-14" value="" style="endArrow=none;html=1;entryX=0;entryY=0.5;entryDx=0;entryDy=0;" parent="1" source="Zs8oa-NqQ4L7-z65SoMr-2" target="Zs8oa-NqQ4L7-z65SoMr-11" edge="1">
          <mxGeometry width="50" height="50" relative="1" as="geometry">
            <mxPoint x="30" y="510" as="sourcePoint" />
            <mxPoint x="130" y="510" as="targetPoint" />
          </mxGeometry>
        </mxCell>
        <mxCell id="Zs8oa-NqQ4L7-z65SoMr-15" value="" style="endArrow=none;html=1;entryX=0;entryY=0.5;entryDx=0;entryDy=0;" parent="1" target="Zs8oa-NqQ4L7-z65SoMr-9" edge="1">
          <mxGeometry width="50" height="50" relative="1" as="geometry">
            <mxPoint x="80" y="580" as="sourcePoint" />
            <mxPoint x="130" y="530" as="targetPoint" />
          </mxGeometry>
        </mxCell>
        <mxCell id="Zs8oa-NqQ4L7-z65SoMr-16" value="" style="endArrow=none;html=1;entryX=0;entryY=0.5;entryDx=0;entryDy=0;" parent="1" target="Zs8oa-NqQ4L7-z65SoMr-5" edge="1">
          <mxGeometry width="50" height="50" relative="1" as="geometry">
            <mxPoint x="80" y="580" as="sourcePoint" />
            <mxPoint x="130" y="530" as="targetPoint" />
          </mxGeometry>
        </mxCell>
        <mxCell id="Zs8oa-NqQ4L7-z65SoMr-17" value="" style="endArrow=none;html=1;entryX=0;entryY=0.5;entryDx=0;entryDy=0;" parent="1" target="Zs8oa-NqQ4L7-z65SoMr-6" edge="1">
          <mxGeometry width="50" height="50" relative="1" as="geometry">
            <mxPoint x="80" y="580" as="sourcePoint" />
            <mxPoint x="130" y="530" as="targetPoint" />
          </mxGeometry>
        </mxCell>
        <mxCell id="Zs8oa-NqQ4L7-z65SoMr-18" value="" style="endArrow=none;html=1;entryX=0.008;entryY=0.617;entryDx=0;entryDy=0;entryPerimeter=0;" parent="1" target="Zs8oa-NqQ4L7-z65SoMr-12" edge="1">
          <mxGeometry width="50" height="50" relative="1" as="geometry">
            <mxPoint x="80" y="580" as="sourcePoint" />
            <mxPoint x="130" y="530" as="targetPoint" />
          </mxGeometry>
        </mxCell>
        <mxCell id="Zs8oa-NqQ4L7-z65SoMr-21" value="" style="endArrow=none;html=1;entryX=0;entryY=0.5;entryDx=0;entryDy=0;" parent="1" target="Zs8oa-NqQ4L7-z65SoMr-13" edge="1">
          <mxGeometry width="50" height="50" relative="1" as="geometry">
            <mxPoint x="80" y="575" as="sourcePoint" />
            <mxPoint x="130" y="525" as="targetPoint" />
          </mxGeometry>
        </mxCell>
        <mxCell id="Zs8oa-NqQ4L7-z65SoMr-22" value="Minigames" style="shape=callout;whiteSpace=wrap;html=1;perimeter=calloutPerimeter;" parent="1" vertex="1">
          <mxGeometry x="370" y="220" width="120" height="80" as="geometry" />
        </mxCell>
        <mxCell id="Zs8oa-NqQ4L7-z65SoMr-23" value="Resolve invalid input" style="ellipse;whiteSpace=wrap;html=1;" parent="1" vertex="1">
          <mxGeometry x="450" y="340" width="120" height="80" as="geometry" />
        </mxCell>
        <mxCell id="Zs8oa-NqQ4L7-z65SoMr-24" value="Set Token" style="ellipse;whiteSpace=wrap;html=1;" parent="1" vertex="1">
          <mxGeometry x="450" y="470" width="120" height="80" as="geometry" />
        </mxCell>
        <mxCell id="Po_TQx3bjGGPOgBwVJSE-1" value="Extends" style="endArrow=block;endSize=16;endFill=0;html=1;exitX=0.092;exitY=0.775;exitDx=0;exitDy=0;exitPerimeter=0;entryX=1;entryY=0.5;entryDx=0;entryDy=0;" parent="1" source="Zs8oa-NqQ4L7-z65SoMr-23" target="Zs8oa-NqQ4L7-z65SoMr-5" edge="1">
          <mxGeometry width="160" relative="1" as="geometry">
            <mxPoint x="330" y="610" as="sourcePoint" />
            <mxPoint x="490" y="610" as="targetPoint" />
          </mxGeometry>
        </mxCell>
        <mxCell id="Po_TQx3bjGGPOgBwVJSE-2" value="Extends" style="endArrow=block;endSize=16;endFill=0;html=1;exitX=0.058;exitY=0.738;exitDx=0;exitDy=0;exitPerimeter=0;entryX=1;entryY=0.5;entryDx=0;entryDy=0;" parent="1" source="Zs8oa-NqQ4L7-z65SoMr-23" target="Zs8oa-NqQ4L7-z65SoMr-9" edge="1">
          <mxGeometry width="160" relative="1" as="geometry">
            <mxPoint x="330" y="610" as="sourcePoint" />
            <mxPoint x="490" y="610" as="targetPoint" />
          </mxGeometry>
        </mxCell>
        <mxCell id="Po_TQx3bjGGPOgBwVJSE-3" value="Extends" style="endArrow=block;endSize=16;endFill=0;html=1;exitX=0.05;exitY=0.75;exitDx=0;exitDy=0;exitPerimeter=0;entryX=1;entryY=0.5;entryDx=0;entryDy=0;" parent="1" source="Zs8oa-NqQ4L7-z65SoMr-23" target="Zs8oa-NqQ4L7-z65SoMr-12" edge="1">
          <mxGeometry width="160" relative="1" as="geometry">
            <mxPoint x="330" y="610" as="sourcePoint" />
            <mxPoint x="490" y="610" as="targetPoint" />
          </mxGeometry>
        </mxCell>
        <mxCell id="Po_TQx3bjGGPOgBwVJSE-4" value="Extends" style="endArrow=block;endSize=16;endFill=0;html=1;entryX=1;entryY=0.5;entryDx=0;entryDy=0;" parent="1" target="Zs8oa-NqQ4L7-z65SoMr-13" edge="1">
          <mxGeometry width="160" relative="1" as="geometry">
            <mxPoint x="460" y="410" as="sourcePoint" />
            <mxPoint x="490" y="610" as="targetPoint" />
          </mxGeometry>
        </mxCell>
        <mxCell id="Po_TQx3bjGGPOgBwVJSE-8" value="include" style="endArrow=open;endSize=12;dashed=1;html=1;exitX=1;exitY=0.75;exitDx=0;exitDy=0;entryX=1;entryY=0.5;entryDx=0;entryDy=0;" parent="1" source="Zs8oa-NqQ4L7-z65SoMr-9" target="Zs8oa-NqQ4L7-z65SoMr-11" edge="1">
          <mxGeometry x="-0.2344" y="-10" width="160" relative="1" as="geometry">
            <mxPoint x="330" y="610" as="sourcePoint" />
            <mxPoint x="490" y="610" as="targetPoint" />
            <Array as="points">
              <mxPoint x="300" y="510" />
            </Array>
            <mxPoint x="9" y="15" as="offset" />
          </mxGeometry>
        </mxCell>
      </root>
    </mxGraphModel>
  </diagram>
  <diagram id="D6v2VVEQw3k52TDAuTec" name="AD - triple digits ">
    
    <mxGraphModel dx="1102" dy="582" grid="1" gridSize="10" guides="1" tooltips="1" connect="1" arrows="1" fold="1" page="1" pageScale="1" pageWidth="827" pageHeight="1169" math="0" shadow="0">
      
      <root>
        
        <mxCell id="Y7XKfmp10ZOwmwzVKMvT-0" />
        
        <mxCell id="Y7XKfmp10ZOwmwzVKMvT-1" parent="Y7XKfmp10ZOwmwzVKMvT-0" />
        
        <mxCell id="bVi1ODGCepfcqF7ZswLs-2" value="" style="edgeStyle=orthogonalEdgeStyle;rounded=0;orthogonalLoop=1;jettySize=auto;html=1;" edge="1" parent="Y7XKfmp10ZOwmwzVKMvT-1" source="bVi1ODGCepfcqF7ZswLs-10" target="bVi1ODGCepfcqF7ZswLs-1">
          
          <mxGeometry relative="1" as="geometry" />
          
        </mxCell>
        
        <mxCell id="bVi1ODGCepfcqF7ZswLs-0" value="" style="ellipse;html=1;shape=endState;fillColor=#000000;strokeColor=#ff0000;" vertex="1" parent="Y7XKfmp10ZOwmwzVKMvT-1">
          
          <mxGeometry x="384" y="60" width="30" height="30" as="geometry" />
          
        </mxCell>
        
        <mxCell id="bVi1ODGCepfcqF7ZswLs-1" value="" style="ellipse;html=1;shape=endState;fillColor=#000000;strokeColor=#ff0000;" vertex="1" parent="Y7XKfmp10ZOwmwzVKMvT-1">
          
          <mxGeometry x="630" y="860" width="30" height="30" as="geometry" />
          
        </mxCell>
        
        <mxCell id="bVi1ODGCepfcqF7ZswLs-5" value="" style="edgeStyle=orthogonalEdgeStyle;rounded=0;orthogonalLoop=1;jettySize=auto;html=1;" edge="1" parent="Y7XKfmp10ZOwmwzVKMvT-1" source="bVi1ODGCepfcqF7ZswLs-3" target="bVi1ODGCepfcqF7ZswLs-4">
          
          <mxGeometry relative="1" as="geometry" />
          
        </mxCell>
        
        <mxCell id="bVi1ODGCepfcqF7ZswLs-3" value="" style="rounded=1;whiteSpace=wrap;html=1;" vertex="1" parent="Y7XKfmp10ZOwmwzVKMvT-1">
          
          <mxGeometry x="585" y="120" width="120" height="60" as="geometry" />
          
        </mxCell>
        
        <mxCell id="bVi1ODGCepfcqF7ZswLs-7" value="" style="edgeStyle=orthogonalEdgeStyle;rounded=0;orthogonalLoop=1;jettySize=auto;html=1;" edge="1" parent="Y7XKfmp10ZOwmwzVKMvT-1" source="bVi1ODGCepfcqF7ZswLs-4" target="bVi1ODGCepfcqF7ZswLs-6">
          
          <mxGeometry relative="1" as="geometry" />
          
        </mxCell>
        
        <mxCell id="bVi1ODGCepfcqF7ZswLs-4" value="" style="rounded=1;whiteSpace=wrap;html=1;" vertex="1" parent="Y7XKfmp10ZOwmwzVKMvT-1">
          
          <mxGeometry x="585" y="260" width="120" height="60" as="geometry" />
          
        </mxCell>
        
        <mxCell id="bVi1ODGCepfcqF7ZswLs-9" value="" style="edgeStyle=orthogonalEdgeStyle;rounded=0;orthogonalLoop=1;jettySize=auto;html=1;" edge="1" parent="Y7XKfmp10ZOwmwzVKMvT-1" source="bVi1ODGCepfcqF7ZswLs-6" target="bVi1ODGCepfcqF7ZswLs-8">
          
          <mxGeometry relative="1" as="geometry" />
          
        </mxCell>
        
        <mxCell id="bVi1ODGCepfcqF7ZswLs-6" value="" style="rounded=1;whiteSpace=wrap;html=1;" vertex="1" parent="Y7XKfmp10ZOwmwzVKMvT-1">
          
          <mxGeometry x="585" y="400" width="120" height="60" as="geometry" />
          
        </mxCell>
        
        <mxCell id="bVi1ODGCepfcqF7ZswLs-8" value="" style="rounded=1;whiteSpace=wrap;html=1;" vertex="1" parent="Y7XKfmp10ZOwmwzVKMvT-1">
          
          <mxGeometry x="585" y="540" width="120" height="60" as="geometry" />
          
        </mxCell>
        
        <mxCell id="bVi1ODGCepfcqF7ZswLs-10" value="Use Case" style="ellipse;whiteSpace=wrap;html=1;" vertex="1" parent="Y7XKfmp10ZOwmwzVKMvT-1">
          
          <mxGeometry x="575" y="660" width="140" height="70" as="geometry" />
          
        </mxCell>
        
        <mxCell id="bVi1ODGCepfcqF7ZswLs-11" value="" style="edgeStyle=orthogonalEdgeStyle;rounded=0;orthogonalLoop=1;jettySize=auto;html=1;" edge="1" parent="Y7XKfmp10ZOwmwzVKMvT-1" source="bVi1ODGCepfcqF7ZswLs-0" target="bVi1ODGCepfcqF7ZswLs-10">
          
          <mxGeometry relative="1" as="geometry">
            
            <mxPoint x="414" y="75" as="sourcePoint" />
            
            <mxPoint x="645" y="860" as="targetPoint" />
            
          </mxGeometry>
          
        </mxCell>
        
      </root>
      
    </mxGraphModel>
    
  </diagram>
  <diagram id="yhw2Uy5C4E4kIvTpArMc" name="Page-3">
    
    <mxGraphModel dx="1102" dy="582" grid="1" gridSize="10" guides="1" tooltips="1" connect="1" arrows="1" fold="1" page="1" pageScale="1" pageWidth="827" pageHeight="1169" math="0" shadow="0">
      
      <root>
        
        <mxCell id="4QjOrpernoOO9qF_tPSB-0" />
        
        <mxCell id="4QjOrpernoOO9qF_tPSB-1" parent="4QjOrpernoOO9qF_tPSB-0" />
        
      </root>
      
    </mxGraphModel>
    
  </diagram>
  <diagram id="EqpaTfyjUgB7FDpnQl1O" name="Page-4">
    
    <mxGraphModel dx="1102" dy="582" grid="1" gridSize="10" guides="1" tooltips="1" connect="1" arrows="1" fold="1" page="1" pageScale="1" pageWidth="827" pageHeight="1169" math="0" shadow="0">
      
      <root>
        
        <mxCell id="vGsfibny0LHCdJZ1EqbY-0" />
        
        <mxCell id="vGsfibny0LHCdJZ1EqbY-1" parent="vGsfibny0LHCdJZ1EqbY-0" />
        
      </root>
      
    </mxGraphModel>
    
  </diagram>
  <diagram id="prUCK55E7Amh2CXahnqg" name="Page-5">
    
    <mxGraphModel dx="1102" dy="582" grid="1" gridSize="10" guides="1" tooltips="1" connect="1" arrows="1" fold="1" page="1" pageScale="1" pageWidth="827" pageHeight="1169" math="0" shadow="0">
      
      <root>
        
        <mxCell id="jx_K510WYDmdfqp8ByXl-0" />
        
        <mxCell id="jx_K510WYDmdfqp8ByXl-1" parent="jx_K510WYDmdfqp8ByXl-0" />
        
      </root>
      
    </mxGraphModel>
    
  </diagram>
</mxfile>
